<svg width="101.000000" height="101.000000" viewBox="0 0 101 101" fill="none" xmlns="http://www.w3.org/2000/svg" xmlns:xlink="http://www.w3.org/1999/xlink">
	<desc>
			Created with Pixso.
	</desc>
	<defs>
		<filter id="filter_1_2252_dd" x="0.000000" y="0.000000" width="101.000000" height="101.000000" filterUnits="userSpaceOnUse" color-interpolation-filters="sRGB">
			<feFlood flood-opacity="0" result="BackgroundImageFix"/>
			<feColorMatrix in="SourceAlpha" type="matrix" values="0 0 0 0 0 0 0 0 0 0 0 0 0 0 0 0 0 0 127 0" result="hardAlpha"/>
			<feOffset dx="0" dy="4"/>
			<feGaussianBlur stdDeviation="1.33333"/>
			<feComposite in2="hardAlpha" operator="out" k2="-1" k3="1"/>
			<feColorMatrix type="matrix" values="0 0 0 0 0 0 0 0 0 0 0 0 0 0 0 0 0 0 0.25 0"/>
			<feBlend mode="normal" in2="BackgroundImageFix" result="effect_dropShadow_1"/>
			<feBlend mode="normal" in="SourceGraphic" in2="effect_dropShadow_1" result="shape"/>
		</filter>
	</defs>
	<g filter="url(#filter_1_2252_dd)">
		<path id="Icon" d="M75.7256 15.3387L75.7256 3.46777L51.9834 3.46777L51.9834 0.5L49.0166 0.5L49.0166 3.46777L25.2744 3.46777L25.2744 35.5305L16.3711 30.3907L16.3711 30.1774L16.0039 30.1774L15.6826 29.9919L15.5752 30.1774L4.5 30.1774L4.5 50.9517C4.5 54.2253 7.16211 56.8871 10.4355 56.8871L25.2744 56.8871L25.2744 62.8226L38.3027 62.8226L32.9609 89.5322L4.5 89.5322L4.5 92.5L90.5645 92.5L90.5645 89.5322L68.0391 89.5322L62.6973 62.8226L75.7256 62.8226L75.7256 39.0807L87.5967 39.0807L87.5967 36.1129L85.0449 36.1129L87.7305 25.3734L82.2285 18.4976C87.7988 19.4731 92.0488 24.3328 92.0488 30.1774L95.0166 30.1774C95.0166 25.3214 92.6602 21.0145 89.042 18.3064L96.5 18.3064L96.5 15.3387L75.7256 15.3387ZM72.625 25.3734L75.3105 36.1129L72.7578 36.1129L72.7578 59.8549L28.2422 59.8549L28.2422 56.8871L31.21 56.8871L31.21 45.8101L31.3936 45.7024L31.21 45.3853L31.21 45.0161L30.9961 45.0161L28.2422 40.2455L28.2422 6.43542L72.7578 6.43542L72.7578 15.3387L63.8545 15.3387L63.8545 18.3064L71.3135 18.3064C67.6943 21.0145 65.3389 25.3214 65.3389 30.1774L68.3066 30.1774C68.3066 24.3328 72.5557 19.4731 78.126 18.4956L72.625 25.3734ZM34.1777 12.371L37.1455 12.371L37.1455 15.3386L34.1777 15.3386L34.1777 12.371ZM50.5 19.7903C57.8633 19.7903 63.8545 25.7814 63.8545 33.1451C63.8545 37.0439 62.167 40.5459 59.4941 42.9888L63.5713 48.594L61.1709 50.3395L57.0996 44.7416C55.1504 45.8545 52.9004 46.4999 50.5 46.4999C43.1367 46.4999 37.1455 40.5088 37.1455 33.1451C37.1455 29.2462 38.833 25.7443 41.5059 23.3015L37.4287 17.6962L39.8291 15.9507L43.9004 21.5486C45.8496 20.4358 48.0996 19.7903 50.5 19.7903ZM84.4951 26.0801L81.9873 36.1129L78.3672 36.1129L75.8594 26.0782L78.6934 22.5355L78.6934 28.6936L81.6611 28.6936L81.6611 22.5374L84.4951 26.0801ZM50.5 22.7581C48.751 22.7581 47.1055 23.1976 45.6572 23.9636L57.7393 40.5774C59.6777 38.691 60.8867 36.0573 60.8867 33.1451C60.8867 27.4192 56.2256 22.7581 50.5 22.7581ZM40.1133 33.1451C40.1133 38.871 44.7744 43.5322 50.5 43.5322C52.249 43.5322 53.8945 43.0927 55.3428 42.3284L43.2607 25.7128C41.3223 27.5991 40.1133 30.233 40.1133 33.1451ZM13.4033 50.9517C13.4033 52.5875 12.0713 53.9193 10.4355 53.9193C8.7998 53.9193 7.46777 52.5875 7.46777 50.9517L7.46777 33.1451L13.4033 33.1451L13.4033 50.9517ZM16.3711 34.7366L16.7695 34.0448L21.9072 37.0125L16.3711 46.6057L16.3711 34.7366ZM24.3711 39.4795L27.3389 44.6173L17.749 50.1559L23.6826 39.8763L24.3711 39.4795ZM17.1631 53.9193L27.4443 47.9839L28.2422 47.9839L28.2422 53.9193L17.1631 53.9193ZM66.8223 50.9515L63.8545 50.9515L63.8545 53.9193L66.8223 53.9193L66.8223 50.9515ZM49.0166 89.5322L35.9873 89.5322L41.3301 62.8226L49.0166 62.8226L49.0166 89.5322ZM65.0127 89.5322L51.9834 89.5322L51.9834 62.8226L59.6699 62.8226L65.0127 89.5322ZM96.5 89.5322L93.5322 89.5322L93.5322 92.5L96.5 92.5L96.5 89.5322Z" fill="#CDA274" fill-opacity="1.000000" fill-rule="evenodd"/>
	</g>
	<path id="Icon" d="M96.5 89.5322L96.5 92.5L93.5322 92.5L93.5322 89.5322L96.5 89.5322ZM75.7256 3.46777L51.9834 3.46777L51.9834 0.5L49.0166 0.5L49.0166 3.46777L25.2744 3.46777L25.2744 35.5305L16.3711 30.3907L16.3711 30.1774L16.0039 30.1774L15.6826 29.9919L15.5752 30.1774L4.5 30.1774L4.5 50.9517C4.5 54.2253 7.16211 56.8871 10.4355 56.8871L25.2744 56.8871L25.2744 62.8226L38.3027 62.8226L32.9609 89.5322L4.5 89.5322L4.5 92.5L90.5645 92.5L90.5645 89.5322L68.0391 89.5322L62.6973 62.8226L75.7256 62.8226L75.7256 39.0807L87.5967 39.0807L87.5967 36.1129L85.0449 36.1129L87.7305 25.3734L82.2285 18.4976C87.7988 19.4731 92.0488 24.3328 92.0488 30.1774L95.0166 30.1774C95.0166 25.3214 92.6602 21.0145 89.042 18.3064L96.5 18.3064L96.5 15.3387L75.7256 15.3387L75.7256 3.46777ZM10.4355 53.9193C8.7998 53.9193 7.46777 52.5875 7.46777 50.9517L7.46777 33.1451L13.4033 33.1451L13.4033 50.9517C13.4033 52.5875 12.0713 53.9193 10.4355 53.9193ZM27.3389 44.6173L17.749 50.1559L23.6826 39.8763L24.3711 39.4795L27.3389 44.6173ZM16.7695 34.0448L21.9072 37.0125L16.3711 46.6057L16.3711 34.7366L16.7695 34.0448ZM27.4443 47.9839L28.2422 47.9839L28.2422 53.9193L17.1631 53.9193L27.4443 47.9839ZM35.9873 89.5322L41.3301 62.8226L49.0166 62.8226L49.0166 89.5322L35.9873 89.5322ZM51.9834 89.5322L51.9834 62.8226L59.6699 62.8226L65.0127 89.5322L51.9834 89.5322ZM75.3105 36.1129L72.7578 36.1129L72.7578 59.8549L28.2422 59.8549L28.2422 56.8871L31.21 56.8871L31.21 45.8101L31.3936 45.7024L31.21 45.3853L31.21 45.0161L30.9961 45.0161L28.2422 40.2455L28.2422 6.43542L72.7578 6.43542L72.7578 15.3387L63.8545 15.3387L63.8545 18.3064L71.3135 18.3064C67.6943 21.0145 65.3389 25.3214 65.3389 30.1774L68.3066 30.1774C68.3066 24.3328 72.5557 19.4731 78.126 18.4956L72.625 25.3734L75.3105 36.1129ZM81.9873 36.1129L78.3672 36.1129L75.8594 26.0782L78.6934 22.5355L78.6934 28.6936L81.6611 28.6936L81.6611 22.5374L84.4951 26.0801L81.9873 36.1129ZM37.1455 12.371L37.1455 15.3386L34.1777 15.3386L34.1777 12.371L37.1455 12.371ZM66.8223 50.9515L66.8223 53.9193L63.8545 53.9193L63.8545 50.9515L66.8223 50.9515ZM50.5 19.7903C48.0996 19.7903 45.8496 20.4358 43.9004 21.5486L39.8291 15.9507L37.4287 17.6962L41.5059 23.3015C38.833 25.7443 37.1455 29.2462 37.1455 33.1451C37.1455 40.5088 43.1367 46.4999 50.5 46.4999C52.9004 46.4999 55.1504 45.8545 57.0996 44.7416L61.1709 50.3395L63.5713 48.594L59.4941 42.9888C62.167 40.5459 63.8545 37.0439 63.8545 33.1451C63.8545 25.7814 57.8633 19.7903 50.5 19.7903ZM40.1133 33.1451C40.1133 30.233 41.3223 27.5991 43.2607 25.7128L55.3428 42.3284C53.8945 43.0927 52.249 43.5322 50.5 43.5322C44.7744 43.5322 40.1133 38.871 40.1133 33.1451ZM50.5 22.7581C56.2256 22.7581 60.8867 27.4192 60.8867 33.1451C60.8867 36.0573 59.6777 38.691 57.7393 40.5774L45.6572 23.9636C47.1055 23.1976 48.751 22.7581 50.5 22.7581Z" stroke="#000000" stroke-opacity="1.000000" stroke-width="1.000000"/>
</svg>
